<?xml version="1.0" encoding="UTF-8"?><svg version="1.1" viewBox="0 0 24 24" xmlns="http://www.w3.org/2000/svg" xmlns:xlink="http://www.w3.org/1999/xlink"><!--Generated by IJSVG (https://github.com/iconjar/IJSVG)--><g stroke-linecap="round" stroke-width="0.985" stroke="#545E75" fill="none" stroke-linejoin="round"><path d="M4.25,23.5l8.5,-13.5l2.52917e-08,-3.30651e-08c0.422446,-0.552285 1.21262,-0.65754 1.76491,-0.235094c0.0884128,0.0676275 0.167467,0.146681 0.235094,0.235094l8.5,13.5Z"></path><path d="M4.25,23.5h-3.5l3.5,-5.5l-3.50115e-08,4.35485e-08c0.244647,-0.3043 0.609771,-0.486863 1,-0.5l-6.92806e-08,-2.33239e-09c0.390229,0.0131374 0.755353,0.195699 1,0.5l0.65,1.3"></path><path d="M8.705,16.424l2.343,1.982l-4.98347e-08,-4.21212e-08c0.397204,0.335724 0.98544,0.310943 1.353,-0.0569999l0.642,-0.642l-6.15305e-08,6.15119e-08c0.3905,-0.390382 1.0235,-0.390382 1.414,-1.23024e-07l0.642,0.642l3.56889e-08,3.57261e-08c0.36756,0.367943 0.955796,0.392724 1.353,0.0569999l2.3,-1.943"></path><path d="M13.75,9.5v-9"></path><path d="M13.75,0.5h6.96l1.08484e-08,1.54428e-11c0.276142,0.000393103 0.499681,0.224569 0.499288,0.500711c-0.00016106,0.113139 -0.0386887,0.222879 -0.109288,0.311289l-1.1,1.376l1.74492e-10,-2.18511e-10c-0.145717,0.182479 -0.145717,0.441521 -3.48983e-10,0.624l1.1,1.376l-1.343e-08,-1.68181e-08c0.172313,0.215784 0.137073,0.530399 -0.0787112,0.702712c-0.0884097,0.070599 -0.19815,0.109127 -0.311289,0.109288h-6.96"></path></g></svg>