<?xml version="1.0" encoding="UTF-8"?><svg version="1.1" viewBox="0 0 24 24" xmlns="http://www.w3.org/2000/svg" xmlns:xlink="http://www.w3.org/1999/xlink"><!--Generated by IJSVG (https://github.com/iconjar/IJSVG)--><path d="M12,0.5l1.30309e-07,1.22899e-10c-6.35127,-0.00599014 -11.5049,5.13788 -11.5108,11.4891c-0.00467682,4.95878 3.16974,9.36212 7.87584,10.9249c0.574,0.1 0.756,-0.237 0.756,-0.541c0,-0.275 0.006,-1.037 0,-2c-3.2,0.694 -3.861,-1.515 -3.861,-1.515l2.38295e-08,7.84968e-08c-0.210977,-0.694977 -0.663568,-1.29158 -1.276,-1.682c-1.044,-0.714 0.078,-0.7 0.078,-0.7l9.74611e-08,1.33768e-08c0.738662,0.101384 1.38903,0.538405 1.762,1.184l1.08247e-07,1.97246e-07c0.650451,1.18524 2.13857,1.61878 3.32382,0.968324c0.00741573,-0.0040697 0.0148103,-0.0081778 0.0221835,-0.0123242l-7.35492e-08,8.05889e-07c0.0530544,-0.581325 0.311928,-1.12461 0.729999,-1.532c-2.553,-0.292 -5.238,-1.278 -5.238,-5.686l-1.64514e-07,-1.1599e-05c-0.0162063,-1.14272 0.408145,-2.24781 1.18501,-3.086l-9.67104e-08,-2.72397e-07c-0.352021,-0.991511 -0.311957,-2.08005 0.112,-3.043c0,0 0.967,-0.309 3.162,1.18l-1.84538e-07,5.06401e-08c1.88515,-0.517316 3.87484,-0.517317 5.76,-6.79725e-07c2.2,-1.488 3.159,-1.18 3.159,-1.18l8.64718e-08,1.96308e-07c0.424107,0.962809 0.46488,2.05116 0.114,3.043l9.19228e-08,9.92175e-08c0.77706,0.838725 1.20078,1.94478 1.18299,3.08801c0,4.42 -2.689,5.391 -5.251,5.674l8.14941e-08,8.18877e-08c0.55678,0.55947 0.843838,1.33274 0.787,2.12v3.184c0,0.307 0.186,0.647 0.77,0.536l-3.22433e-07,1.07067e-07c6.02764,-2.00155 9.29144,-8.51049 7.28989,-14.5381c-1.56365,-4.70892 -5.97115,-7.88401 -10.9329,-7.87586Z" stroke-linecap="round" stroke-width="1" stroke="#545E75" fill="none" stroke-linejoin="round"></path></svg>