<?xml version="1.0" encoding="UTF-8"?>
<svg width="16" height="16" version="1.1" viewBox="0 0 16 16" xmlns="http://www.w3.org/2000/svg" xmlns:xlink="http://www.w3.org/1999/xlink">
    <!--Generated by IJSVG (https://github.com/iconjar/IJSVG)-->
    <g transform="scale(0.666667)">
        <path fill="#2F2F2F" d="M3.616,9.609l7.68138e-08,7.65891e-08c0.488638,0.487209 1.27936,0.487209 1.768,-1.53178e-07l6.439,-6.423l-4.3151e-09,4.258e-09c0.0981335,-0.0968348 0.255866,-0.0968348 0.354,-8.51599e-09l6.439,6.423l4.81328e-08,4.82693e-08c0.486839,0.48822 1.27728,0.489339 1.7655,0.0024999c0.48822,-0.486839 0.489339,-1.27728 0.0024999,-1.7655l-7.5,-7.481l4.21304e-09,4.20072e-09c-0.488638,-0.487209 -1.27936,-0.487209 -1.768,-8.40144e-09l-7.5,7.481l-9.90892e-08,9.88301e-08c-0.486839,0.485566 -0.487871,1.27386 -0.00230543,1.76069c0.000767536,0.000769549 0.00153608,0.00153809 0.00230563,0.00230563Z"></path>
        <path fill="#2F2F2F" d="M20.384,14.391l4.21304e-09,4.20072e-09c-0.488638,-0.487209 -1.27936,-0.487209 -1.768,-8.40144e-09l-6.439,6.423l-6.74744e-10,6.65814e-10c-0.0981335,0.0968348 -0.255866,0.0968348 -0.354,-1.33163e-09l-6.439,-6.423l-2.0113e-08,-2.017e-08c-0.486839,-0.48822 -1.27728,-0.489339 -1.7655,-0.00249996c-0.48822,0.486839 -0.489339,1.27728 -0.00249996,1.7655l7.5,7.481l1.45133e-08,1.44479e-08c0.488865,0.48666 1.27914,0.48666 1.768,-2.88957e-08l7.5,-7.481l3.36912e-09,-3.36031e-09c0.486839,-0.485566 0.487871,-1.27386 0.00230559,-1.76069c-0.000767537,-0.000769549 -0.00153608,-0.00153809 -0.00230563,-0.00230563Z"></path>
    </g>
</svg>