<?xml version="1.0" encoding="UTF-8"?><svg version="1.1" viewBox="0 0 24 24" xmlns="http://www.w3.org/2000/svg" xmlns:xlink="http://www.w3.org/1999/xlink"><!--Generated by IJSVG (https://github.com/iconjar/IJSVG)--><g stroke-linecap="round" stroke-width="1" stroke="#545E75" fill="none" stroke-linejoin="round"><path d="M6.5,8.5l1.06581e-14,1.50996e-07c8.33927e-08,0.552285 0.447715,1 1,1h1l2.573,2.573l-1.89397e-08,-1.8993e-08c0.0974939,0.0977681 0.255785,0.0979904 0.353553,0.000496492c0.0461707,-0.0460412 0.0725266,-0.108299 0.0734468,-0.173496v-2.4h7l-4.37114e-08,-1.77636e-15c0.552285,2.41411e-08 1,-0.447715 1,-1v-7v0c0,-0.552285 -0.447715,-1 -1,-1h-11l-4.37114e-08,9.99201e-16c-0.552285,2.41411e-08 -1,0.447715 -1,1c0,2.22045e-16 0,6.66134e-16 0,6.66134e-16Z"></path><path d="M9.5,3.5h6.97"></path><path d="M9.5,6.5h6.97"></path><path d="M6.59099,12.159c0.87868,0.87868 0.87868,2.3033 0,3.18198c-0.87868,0.87868 -2.3033,0.87868 -3.18198,0c-0.87868,-0.87868 -0.87868,-2.3033 -4.44089e-16,-3.18198c0.87868,-0.87868 2.3033,-0.87868 3.18198,0"></path><path d="M8.169,18.27l6.87033e-08,6.47892e-08c-1.86155,-1.7555 -4.79374,-1.66952 -6.54924,0.192027c-0.540436,0.573085 -0.925829,1.2745 -1.11976,2.03797h6"></path><path d="M20.591,12.159c0.87868,0.87868 0.87868,2.3033 0,3.18198c-0.87868,0.87868 -2.3033,0.87868 -3.18198,0c-0.87868,-0.87868 -0.87868,-2.3033 0,-3.18198c0.87868,-0.87868 2.3033,-0.87868 3.18198,0"></path><path d="M15.831,18.27l3.84373e-08,-3.62475e-08c1.86155,-1.7555 4.79374,-1.66952 6.54924,0.192027c0.540436,0.573085 0.925829,1.2745 1.11976,2.03797h-6"></path><path d="M13.591,15.159c0.87868,0.87868 0.87868,2.3033 0,3.18198c-0.87868,0.87868 -2.3033,0.87868 -3.18198,0c-0.87868,-0.87868 -0.87868,-2.3033 0,-3.18198c0.87868,-0.87868 2.3033,-0.87868 3.18198,0"></path><path d="M16.5,23.5l-6.44701e-08,-2.52826e-07c-0.633742,-2.48528 -3.16221,-3.98625 -5.64749,-3.35251c-1.64674,0.419915 -2.93259,1.70577 -3.35251,3.35251Z"></path></g></svg>