<?xml version="1.0" encoding="UTF-8"?><svg version="1.1" viewBox="0 0 24 24" xmlns="http://www.w3.org/2000/svg" xmlns:xlink="http://www.w3.org/1999/xlink"><!--Generated by IJSVG (https://github.com/iconjar/IJSVG)--><g stroke-linecap="round" stroke-width="1" stroke="#545E75" fill="none" stroke-linejoin="round"><path d="M5.791,14.7c0,0 10.945,-10.978 11.653,-11.685c0.785,-0.786 3.318,-1.378 4.578,-1.632l-2.53412e-08,5.11209e-09c0.270689,-0.0546063 0.534394,0.120564 0.589,0.391253c0.0131646,0.0652583 0.0131646,0.132489 5.267e-09,0.197747c-0.254,1.26 -0.846,3.792 -1.632,4.578l-11.668,11.667Z"></path><path d="M7.2,13.27l3.53,3.53"></path><path d="M14.615,12.915l4.40536e-07,1.48959e-05c0.0455884,1.54151 -0.0727435,3.0835 -0.353003,4.6l2.62305e-07,-6.19888e-07c-0.334329,0.7901 -0.814732,1.51003 -1.416,2.122l-2.517,2.51299l1.70532e-08,-1.71493e-08c-0.194712,0.19581 -0.511294,0.1967 -0.707104,0.00198788c-0.109113,-0.108502 -0.16219,-0.261201 -0.143896,-0.413988l0.489,-4.176"></path><path d="M11.079,9.379l-8.5548e-07,-3.16258e-08c-1.54868,-0.0572525 -3.09907,0.0503523 -4.62499,0.320999l3.39071e-07,-1.49852e-07c-0.782098,0.345646 -1.49187,0.835906 -2.092,1.445l-2.51,2.509l2.16534e-09,-2.16203e-09c-0.195411,0.195113 -0.195653,0.511695 -0.000540656,0.707107c0.10904,0.109206 0.262398,0.161942 0.415541,0.142893l4.2,-0.514"></path><path d="M7.19,18.217c0.708,0.707 0.413,1.709 -0.353,2.476c-0.717,0.716 -3.435,1.533 -4.826,1.915l1.54174e-08,-4.03865e-09c-0.267129,0.0699756 -0.540407,-0.0898491 -0.610382,-0.356978c-0.0215483,-0.08226 -0.021761,-0.168657 -0.000617777,-0.251022c0.378,-1.395 1.187,-4.121 1.9,-4.839c0.777,-0.776 1.769,-1.06 2.476,-0.353"></path></g></svg>